<mxfile host="app.diagrams.net" modified="2021-01-25T07:56:07.798Z" agent="5.0 (Windows NT 10.0; Win64; x64) AppleWebKit/537.36 (KHTML, like Gecko) Chrome/87.0.4280.141 Safari/537.36" etag="tfRJgAhY0FeW6kdXrLzW" version="14.2.7" type="github">
  <diagram id="C5RBs43oDa-KdzZeNtuy" name="Page-1">
    <mxGraphModel dx="868" dy="482" grid="1" gridSize="10" guides="1" tooltips="1" connect="1" arrows="1" fold="1" page="1" pageScale="1" pageWidth="827" pageHeight="1169" math="0" shadow="0">
      <root>
        <mxCell id="WIyWlLk6GJQsqaUBKTNV-0" />
        <mxCell id="WIyWlLk6GJQsqaUBKTNV-1" parent="WIyWlLk6GJQsqaUBKTNV-0" />
        <mxCell id="L_plBhibKXO6gtgQ9M31-1" value="" style="edgeStyle=orthogonalEdgeStyle;rounded=0;orthogonalLoop=1;jettySize=auto;html=1;" edge="1" parent="WIyWlLk6GJQsqaUBKTNV-1" source="WIyWlLk6GJQsqaUBKTNV-3" target="L_plBhibKXO6gtgQ9M31-0">
          <mxGeometry relative="1" as="geometry" />
        </mxCell>
        <mxCell id="WIyWlLk6GJQsqaUBKTNV-3" value="AccountList.asp Builds Request XML" style="rounded=1;whiteSpace=wrap;html=1;fontSize=12;glass=0;strokeWidth=1;shadow=0;" parent="WIyWlLk6GJQsqaUBKTNV-1" vertex="1">
          <mxGeometry x="160" y="80" width="120" height="40" as="geometry" />
        </mxCell>
        <mxCell id="L_plBhibKXO6gtgQ9M31-6" value="" style="edgeStyle=orthogonalEdgeStyle;rounded=0;orthogonalLoop=1;jettySize=auto;html=1;" edge="1" parent="WIyWlLk6GJQsqaUBKTNV-1" source="L_plBhibKXO6gtgQ9M31-0" target="L_plBhibKXO6gtgQ9M31-2">
          <mxGeometry relative="1" as="geometry" />
        </mxCell>
        <mxCell id="L_plBhibKXO6gtgQ9M31-0" value="PHConnectUniversal.GetAccount()" style="rounded=1;whiteSpace=wrap;html=1;fontSize=12;glass=0;strokeWidth=1;shadow=0;" vertex="1" parent="WIyWlLk6GJQsqaUBKTNV-1">
          <mxGeometry x="310" y="80" width="210" height="40" as="geometry" />
        </mxCell>
        <mxCell id="L_plBhibKXO6gtgQ9M31-9" value="" style="edgeStyle=orthogonalEdgeStyle;rounded=0;orthogonalLoop=1;jettySize=auto;html=1;" edge="1" parent="WIyWlLk6GJQsqaUBKTNV-1" source="L_plBhibKXO6gtgQ9M31-2" target="L_plBhibKXO6gtgQ9M31-4">
          <mxGeometry relative="1" as="geometry" />
        </mxCell>
        <mxCell id="L_plBhibKXO6gtgQ9M31-2" value="COMTI Call&amp;nbsp;&lt;br&gt;Resource :&amp;nbsp; AR_Customer_Account&lt;br&gt;Method :&amp;nbsp;GetAccount()" style="rounded=1;whiteSpace=wrap;html=1;fontSize=12;glass=0;strokeWidth=1;shadow=0;" vertex="1" parent="WIyWlLk6GJQsqaUBKTNV-1">
          <mxGeometry x="560" y="80" width="210" height="40" as="geometry" />
        </mxCell>
        <mxCell id="L_plBhibKXO6gtgQ9M31-10" value="" style="edgeStyle=orthogonalEdgeStyle;rounded=0;orthogonalLoop=1;jettySize=auto;html=1;" edge="1" parent="WIyWlLk6GJQsqaUBKTNV-1" source="L_plBhibKXO6gtgQ9M31-4" target="L_plBhibKXO6gtgQ9M31-5">
          <mxGeometry relative="1" as="geometry" />
        </mxCell>
        <mxCell id="L_plBhibKXO6gtgQ9M31-4" value="StoredProc Call&lt;br&gt;P03203SP" style="rounded=1;whiteSpace=wrap;html=1;fontSize=12;glass=0;strokeWidth=1;shadow=0;" vertex="1" parent="WIyWlLk6GJQsqaUBKTNV-1">
          <mxGeometry x="560" y="150" width="210" height="40" as="geometry" />
        </mxCell>
        <mxCell id="L_plBhibKXO6gtgQ9M31-11" style="edgeStyle=orthogonalEdgeStyle;rounded=0;orthogonalLoop=1;jettySize=auto;html=1;entryX=0.5;entryY=1;entryDx=0;entryDy=0;" edge="1" parent="WIyWlLk6GJQsqaUBKTNV-1" source="L_plBhibKXO6gtgQ9M31-5" target="WIyWlLk6GJQsqaUBKTNV-3">
          <mxGeometry relative="1" as="geometry" />
        </mxCell>
        <mxCell id="L_plBhibKXO6gtgQ9M31-5" value="Merges Both COMTI and Stored Proc and Prepare Response XML" style="rounded=1;whiteSpace=wrap;html=1;fontSize=12;glass=0;strokeWidth=1;shadow=0;" vertex="1" parent="WIyWlLk6GJQsqaUBKTNV-1">
          <mxGeometry x="320" y="150" width="210" height="40" as="geometry" />
        </mxCell>
      </root>
    </mxGraphModel>
  </diagram>
</mxfile>
